<svg xmlns="http://www.w3.org/2000/svg" viewBox="0 0 512 512" role="img" aria-labelledby="title">
  <title id="title">Five Squats original icon</title>
  <rect width="512" height="512" rx="72" fill="#0f8b8d"/>
  <circle cx="342" cy="112" r="48" fill="#ffd166"/>
  <path fill="#ffffff" d="M135 188c15-30 42-50 78-50h66c19 0 34 15 34 34s-15 34-34 34h-63c-12 0-21 6-27 17l-23 45 83 34c19 8 30 27 26 47l-16 78c-4 21-23 36-44 36h-75c-19 0-34-15-34-34s15-34 34-34h56l8-39-85-35c-29-12-42-46-28-74l44-87Z"/>
  <path fill="#ef476f" d="M300 239c8-17 28-25 45-17l58 28c20 10 29 34 19 55l-32 66h56c19 0 34 15 34 34s-15 34-34 34h-110c-12 0-23-6-29-16-6-10-7-23-2-34l42-86-30-14c-17-8-25-29-17-50Z"/>
  <path fill="#171717" d="M88 404h88c16 0 29 13 29 29s-13 29-29 29H88c-16 0-29-13-29-29s13-29 29-29Z"/>
</svg>
