<svg xmlns="http://www.w3.org/2000/svg" viewBox="0 0 512 512" role="img" aria-labelledby="title">
  <title id="title">Five Squats logo option 9</title>
  <rect width="512" height="512" rx="84" fill="#ffd166"/>
  <path d="M143 96h230v72H223l-10 55c18-8 38-12 61-12 81 0 135 51 135 119 0 75-61 126-151 126-64 0-116-26-143-70l61-38c18 29 46 44 82 44 44 0 72-23 72-59 0-35-30-58-75-58-31 0-57 10-79 29l-49-25 16-183Z" fill="#171717"/>
  <path d="M123 420h266" fill="none" stroke="#0f8b8d" stroke-width="28" stroke-linecap="round"/>
  <circle cx="374" cy="116" r="22" fill="#ef476f"/>
</svg>
