<svg xmlns="http://www.w3.org/2000/svg" viewBox="0 0 512 512" role="img" aria-labelledby="title">
  <title id="title">Five Squats logo option 4</title>
  <rect width="512" height="512" rx="84" fill="#171717"/>
  <circle cx="256" cy="256" r="162" fill="none" stroke="#2f9c72" stroke-width="34"/>
  <path d="M256 94a162 162 0 0 1 155 116" fill="none" stroke="#ffd166" stroke-width="34" stroke-linecap="round"/>
  <path d="M156 180h149v50h-96l-7 34c13-6 27-9 43-9 63 0 105 38 105 91 0 57-45 94-113 94-47 0-85-19-108-51l42-30c15 20 36 31 65 31 34 0 56-17 56-44 0-26-22-43-56-43-22 0-41 7-58 21l-35-19 17-125Z" fill="#ffffff"/>
</svg>
