<svg xmlns="http://www.w3.org/2000/svg" viewBox="0 0 512 512" role="img" aria-labelledby="title">
  <title id="title">Five Squats logo option 10</title>
  <rect width="512" height="512" rx="84" fill="#0f8b8d"/>
  <rect x="114" y="104" width="284" height="304" rx="8" fill="#ffffff"/>
  <rect x="114" y="104" width="284" height="72" rx="8" fill="#171717"/>
  <path d="M176 88v56M336 88v56" fill="none" stroke="#ffd166" stroke-width="24" stroke-linecap="round"/>
  <path d="M179 230h154v52h-99l-6 34c13-6 28-10 45-10 55 0 94 34 94 82 0 18-5 35-15 49H183c-17-13-30-29-39-49l44-25c12 24 36 37 67 37 33 0 55-16 55-41 0-24-23-39-58-39-22 0-41 6-58 19l-32-18 17-91Z" fill="#0f8b8d"/>
  <circle cx="372" cy="216" r="18" fill="#ef476f"/>
</svg>
